<?xml version="1.0" standalone="no"?>
<!DOCTYPE svg PUBLIC "-//W3C//DTD SVG 20010904//EN"
 "http://www.w3.org/TR/2001/REC-SVG-20010904/DTD/svg10.dtd">
<svg version="1.0" xmlns="http://www.w3.org/2000/svg"
 width="868.000000pt" height="868.000000pt" viewBox="0 0 868.000000 868.000000"
 preserveAspectRatio="xMidYMid meet">

<g transform="translate(0.000000,868.000000) scale(0.100000,-0.100000)"
fill="#000000" stroke="none">
<path d="M6298 7153 c34 -2 90 -2 125 0 34 2 6 3 -63 3 -69 0 -97 -1 -62 -3z"/>
<path d="M6728 7153 c28 -2 76 -2 105 0 28 2 5 3 -53 3 -58 0 -81 -1 -52 -3z"/>
<path d="M7058 7153 c12 -2 32 -2 45 0 12 2 2 4 -23 4 -25 0 -35 -2 -22 -4z"/>
<path d="M7258 7153 c34 -2 90 -2 125 0 34 2 6 3 -63 3 -69 0 -97 -1 -62 -3z"/>
<path d="M7573 7153 c15 -2 37 -2 50 0 12 2 0 4 -28 4 -27 0 -38 -2 -22 -4z"/>
<path d="M988 7093 c-37 -41 -166 -215 -235 -318 l-60 -90 4 -295 c3 -211 1
-291 -7 -280 -6 9 -8 40 -5 75 3 33 1 154 -3 269 l-7 209 -81 -139 c-45 -76
-89 -153 -98 -171 -15 -29 -16 -195 -15 -1790 1 -967 4 -1866 8 -1999 l6 -240
74 -130 c89 -154 241 -381 348 -519 l78 -100 635 -5 c1012 -9 6034 -11 6045
-2 13 9 116 138 139 174 l18 27 -35 6 c-18 4 -145 5 -280 3 l-247 -3 0 1281 0
1282 83 -4 c45 -2 172 -7 282 -10 110 -4 223 -8 250 -9 28 -2 121 -4 208 -4
143 -1 157 -3 156 -18 0 -11 -3 -13 -6 -5 -6 14 -384 16 -418 2 l-20 -9 20 0
c15 -1 17 -3 6 -10 -8 -5 1 -8 25 -7 39 1 39 1 42 -41 3 -38 6 -43 28 -43 13
0 27 -7 30 -15 7 -17 40 -20 49 -5 10 17 75 12 75 -5 0 -11 11 -15 38 -15 39
0 82 -26 82 -49 0 -6 15 -11 33 -11 17 0 27 4 21 8 -7 4 -8 15 -3 27 l8 20 1
-20 1 -20 9 20 c8 18 9 18 8 -5 -1 -14 1 -31 3 -39 3 -12 -72 -13 -483 -12
l-488 3 0 -40 0 -40 98 -6 c53 -3 270 -7 482 -8 364 -3 399 -6 400 -30 0 -5
-220 -8 -490 -8 -460 0 -490 -1 -491 -17 -2 -29 2 -58 9 -65 12 -11 902 -14
906 -3 2 6 9 5 17 -2 16 -15 33 -17 24 -3 -3 5 1 10 9 10 10 0 16 -9 16 -25
l0 -25 -490 0 -490 0 0 -40 c0 -31 4 -40 18 -40 9 0 127 -3 262 -7 135 -4 347
-7 473 -6 217 1 227 0 227 -18 0 -18 -14 -19 -491 -19 l-490 0 3 -42 3 -43
483 -3 c310 -1 482 -6 482 -12 0 -6 0 -13 0 -17 0 -5 -219 -10 -487 -13 l-488
-5 2 -33 c0 -18 3 -35 5 -37 1 -2 207 -5 456 -7 249 -1 443 0 430 4 -14 3 1 6
38 7 60 1 61 1 60 -26 -1 -16 -7 -29 -13 -29 -7 -1 -229 -2 -493 -3 l-480 -1
0 -40 c0 -31 4 -40 18 -40 9 0 229 -1 487 -3 l470 -2 3 -23 3 -22 -490 0
c-386 0 -491 -3 -492 -12 -2 -18 2 -62 6 -66 1 -2 145 -3 319 -4 174 -1 319
-5 322 -10 3 -4 29 -8 57 -8 39 0 48 3 37 11 -11 7 -3 8 30 5 101 -12 185 -11
182 2 -1 6 2 12 8 12 5 0 13 0 17 0 7 0 8 -16 4 -50 -1 -8 -153 -10 -478 -10
-263 1 -484 1 -490 1 -8 -1 -13 -16 -13 -41 0 -22 1 -40 3 -40 1 0 212 -3 469
-7 426 -5 469 -4 493 11 l25 16 -1 -47 c0 -27 -3 -42 -6 -35 -4 9 -112 12
-494 12 l-489 0 0 -40 0 -40 485 0 c473 0 485 0 485 19 0 11 5 23 10 26 6 4
10 -13 11 -42 0 -85 10 -338 13 -340 1 -2 15 26 29 62 l27 65 0 816 c0 541 3
813 10 809 7 -4 10 79 10 242 0 164 -4 243 -10 233 -14 -22 -13 905 1 987 9
54 8 72 -6 116 -31 95 -127 297 -138 290 -5 -3 -8 -2 -5 3 4 5 1 23 -6 39
l-13 30 -7 -53 c-10 -75 -40 -152 -79 -198 -18 -21 -39 -48 -47 -59 -14 -19
-14 -19 5 -5 28 21 57 50 83 84 12 16 22 26 22 22 0 -19 -84 -115 -115 -132
-19 -10 -35 -22 -35 -26 0 -5 -3 -7 -8 -7 -19 3 -33 -2 -28 -10 3 -5 0 -8 -7
-7 -6 0 -42 -5 -79 -13 -54 -11 -87 -11 -164 -2 -53 6 -106 16 -118 22 -21 10
-21 10 -1 -6 51 -40 212 -57 290 -30 l20 7 -20 -13 c-35 -22 -175 -24 -241 -3
-188 59 -303 222 -292 417 5 95 28 154 89 234 47 61 142 124 219 147 73 22
191 20 260 -4 30 -10 56 -18 57 -16 5 4 -167 251 -251 360 l-90 116 -3331 0
-3331 0 -26 -27z m172 -274 c30 1 52 -1 48 -4 -4 -4 -64 -9 -134 -11 -152 -5
-193 -21 -234 -94 -24 -45 -25 -48 -31 -380 -7 -328 -22 -1625 -20 -1665 3
-42 -11 -186 -17 -180 -4 3 -7 32 -8 63 -1 31 -5 107 -8 167 -4 61 -8 515 -9
1010 -2 937 -1 946 40 1033 9 19 30 43 47 54 28 18 42 19 151 13 66 -4 145 -7
175 -6z m257 -5 c-3 -3 -12 -4 -19 -1 -8 3 -5 6 6 6 11 1 17 -2 13 -5z m5909
-97 c-22 -43 -23 -53 -31 -448 -13 -693 -21 -742 -23 -147 -1 330 2 557 8 572
10 28 45 66 60 66 5 0 -1 -20 -14 -43z m-2479 -153 c-3 -3 -12 -4 -19 -1 -8 3
-5 6 6 6 11 1 17 -2 13 -5z m2148 -642 c0 -721 -4 -892 -19 -892 -7 0 -7 -3 0
-10 7 -7 7 -36 2 -83 -4 -39 -10 -106 -13 -148 -2 -42 -11 -115 -20 -163 -8
-49 -12 -92 -9 -97 3 -5 1 -9 -5 -9 -5 0 -11 6 -14 13 -3 9 -8 9 -17 1 -9 -9
-7 -15 10 -27 15 -10 18 -17 10 -22 -7 -4 -16 -1 -21 6 -14 23 -21 2 -7 -21
10 -18 10 -24 1 -27 -7 -3 -13 -9 -13 -15 0 -6 7 -8 15 -4 17 6 20 -9 4 -20
-18 -11 -29 17 -29 71 1 28 -4 127 -9 220 -6 94 -15 325 -21 515 -12 392 -46
997 -66 1191 l-6 56 36 21 c21 12 41 22 46 22 4 0 34 15 66 34 37 20 63 30 69
24 6 -6 10 -231 10 -636z m-3330 622 c-22 -8 -47 -17 -55 -21 -8 -3 -20 -7
-25 -8 -28 -7 -172 -70 -183 -82 -7 -7 -21 -13 -31 -13 -23 0 -41 -19 -34 -36
3 -9 -2 -14 -13 -14 -16 0 -17 -2 -4 -10 12 -8 12 -10 -5 -11 -15 0 -16 -2 -5
-6 8 -3 17 -10 21 -14 3 -5 36 -2 75 6 114 24 124 26 259 51 285 53 373 64
516 64 68 0 148 -4 178 -10 31 -5 85 -14 121 -19 36 -5 85 -14 110 -20 25 -7
77 -19 115 -28 39 -9 75 -19 80 -23 6 -3 28 -8 50 -9 22 -2 42 -6 45 -11 7
-10 212 -70 243 -70 13 0 38 -7 53 -15 30 -15 81 -18 124 -6 l24 7 -22 22
c-12 12 -29 22 -38 22 -8 0 -20 14 -25 30 -6 17 -17 30 -25 30 -8 0 -32 16
-52 36 -20 20 -49 41 -64 46 -16 6 -26 14 -23 18 3 5 -5 12 -17 16 -13 4 -33
15 -46 25 -13 10 -46 25 -73 34 -28 10 -48 19 -46 21 8 8 183 -59 280 -107
296 -149 548 -378 721 -654 153 -243 260 -534 296 -808 15 -115 12 -408 -5
-540 -46 -353 -198 -676 -427 -910 -49 -51 -86 -85 -82 -77 4 8 -11 -5 -33
-29 -25 -29 -40 -39 -40 -28 0 9 4 14 9 11 4 -3 8 -1 8 5 0 5 -5 13 -10 16
-15 9 -2 25 14 19 8 -3 23 8 35 25 15 21 27 28 39 24 16 -6 16 -6 -1 11 -19
19 -13 41 9 32 8 -3 11 0 8 9 -3 7 0 24 7 37 7 13 14 30 15 38 12 71 40 167
51 176 10 9 11 13 2 16 -7 2 -4 16 10 42 12 21 19 41 16 44 -3 3 1 15 8 26 19
31 38 78 30 72 -5 -2 -24 -35 -43 -73 -19 -37 -37 -70 -40 -73 -3 -3 -25 -32
-50 -65 -235 -317 -656 -564 -1085 -635 -110 -18 -484 -25 -605 -11 -224 26
-432 87 -622 182 -91 46 -233 133 -288 178 -27 22 -45 28 -35 10 4 -6 -1 -17
-11 -24 -23 -17 -11 -20 15 -3 15 9 23 9 35 -1 16 -14 12 -36 -5 -25 -5 3 -6
10 -3 16 5 8 1 9 -12 4 -41 -17 -86 -17 -106 0 -21 20 -36 11 -43 -26 -2 -12
-7 -25 -11 -29 -4 -3 -5 1 -1 10 6 17 -28 39 -60 39 -13 0 -14 -2 -2 -17 13
-16 12 -17 -3 -4 -10 7 -15 17 -12 22 3 5 0 9 -6 9 -6 0 -8 5 -4 11 4 8 9 7
16 -2 8 -11 9 -11 5 1 -2 8 -10 14 -16 13 -6 -2 -17 -4 -23 -5 -8 -2 -12 5
-10 16 3 13 -1 17 -11 13 -15 -6 -85 70 -79 86 1 4 -1 6 -5 5 -5 -2 -10 2 -12
7 -3 6 -13 17 -23 25 -11 8 -20 25 -21 37 0 12 -5 19 -9 17 -25 -16 -195 306
-247 466 -64 198 -75 279 -75 560 -1 223 2 270 21 375 56 297 161 538 341 779
126 167 385 410 425 398 5 -1 6 2 3 7 -8 12 153 112 269 167 89 42 256 102
285 103 8 0 -3 -7 -25 -15z m-2685 -91 c17 -14 30 -31 30 -36 0 -6 7 -19 16
-28 18 -20 27 -138 13 -161 -5 -7 -9 -8 -9 -3 0 6 -7 -1 -15 -15 -8 -16 -10
-27 -3 -31 5 -4 2 -14 -9 -24 -10 -10 -17 -21 -17 -24 3 -16 -10 -32 -22 -27
-9 4 -14 -2 -14 -15 0 -12 -4 -17 -11 -14 -6 4 -8 13 -5 21 3 8 0 11 -9 8 -19
-8 -28 76 -24 231 3 98 7 128 19 135 22 14 27 13 60 -17z m91 -193 c5 0 9 -7
9 -15 0 -15 -20 -22 -20 -7 0 4 -2 16 -4 27 -2 11 -1 14 1 8 3 -7 9 -13 14
-13z m-374 -487 c-2 -16 -4 -3 -4 27 0 30 2 43 4 28 2 -16 2 -40 0 -55z m7403
-212 c23 -18 40 -44 49 -75 13 -42 13 -50 -5 -94 -15 -38 -28 -51 -64 -69 -24
-13 -38 -23 -30 -24 8 0 4 -5 -9 -10 -31 -12 -90 -1 -70 13 10 7 7 7 -9 3 -30
-9 -77 39 -92 93 -14 55 0 108 41 150 57 58 127 63 189 13z m-823 -83 c-2 -13
-4 -3 -4 22 0 25 2 35 4 23 2 -13 2 -33 0 -45z m568 17 c-8 -22 -14 -32 -15
-23 0 17 21 70 26 65 2 -1 -3 -21 -11 -42z m123 -451 c31 -16 57 -36 57 -44 0
-8 10 -25 22 -39 13 -13 35 -49 50 -80 46 -93 34 -233 -25 -304 -9 -9 -13 -19
-10 -22 2 -2 17 16 33 40 32 51 40 57 23 18 -32 -75 -143 -157 -212 -155 -32
0 -37 -1 -21 -9 14 -6 6 -7 -25 -3 -84 12 -155 35 -212 69 -31 18 -54 27 -52
20 8 -19 100 -64 176 -85 34 -10 54 -19 42 -19 -11 -1 -45 6 -75 15 -122 36
-183 85 -231 184 -31 64 -31 185 0 255 77 168 294 244 460 159z m-7188 -660
c0 -8 -4 -12 -10 -9 -5 3 -10 10 -10 16 0 5 5 9 10 9 6 0 10 -7 10 -16z m7468
-61 c-10 -2 -28 -2 -40 0 -13 2 -5 4 17 4 22 1 32 -1 23 -4z m-285 -40 c-24
-2 -62 -2 -85 0 -24 2 -5 4 42 4 47 0 66 -2 43 -4z m144 1 c-3 -3 -12 -4 -19
-1 -8 3 -5 6 6 6 11 1 17 -2 13 -5z m116 -1081 c-18 -2 -48 -2 -65 0 -18 2 -4
4 32 4 36 0 50 -2 33 -4z m-4823 -126 c20 -42 177 -149 253 -172 156 -49 298
-107 316 -129 7 -8 29 -23 49 -34 20 -11 52 -33 70 -50 18 -17 42 -34 53 -37
10 -4 19 -11 19 -16 0 -5 23 -37 50 -70 28 -33 50 -66 50 -73 0 -8 7 -19 15
-26 8 -7 12 -17 8 -22 -3 -6 -6 -44 -7 -84 -1 -61 -4 -76 -21 -88 -19 -15 -18
-15 15 -16 36 -1 32 -5 -25 -25 -18 -7 -16 -9 15 -22 26 -11 31 -17 20 -23 -8
-5 -226 -12 -484 -16 l-469 -7 7 59 c4 32 18 124 32 203 13 80 24 164 24 188
l0 43 -55 0 c-30 0 -55 -4 -55 -8 0 -5 -36 -17 -80 -28 -52 -12 -80 -24 -80
-32 0 -8 -6 -12 -15 -9 -8 4 -17 2 -20 -2 -2 -5 -22 -12 -42 -16 -21 -4 -47
-12 -58 -18 -11 -6 -29 -13 -40 -14 -11 -2 -37 -12 -57 -23 -21 -11 -67 -24
-103 -31 -48 -8 -70 -17 -84 -35 -15 -19 -20 -21 -25 -9 -3 8 -12 12 -19 9
-11 -4 -13 -17 -10 -49 5 -39 3 -44 -18 -50 -39 -10 -69 -27 -64 -36 3 -4 -4
-5 -15 -2 -11 3 -26 1 -33 -5 -7 -6 -35 -16 -61 -22 -27 -6 -74 -22 -104 -36
l-56 -26 -49 23 c-52 25 -87 60 -116 118 -40 79 -35 153 14 226 23 32 24 39
11 49 -22 16 -46 79 -46 118 1 52 34 114 81 147 84 62 194 75 324 41 45 -11
74 -15 82 -8 19 16 572 163 688 183 79 13 93 9 115 -38z m1896 38 c180 -31
703 -169 716 -188 4 -7 27 -4 70 9 139 42 288 15 362 -66 63 -70 70 -138 21
-212 l-25 -37 33 -47 c28 -40 32 -53 32 -112 0 -55 -5 -75 -28 -114 -88 -150
-270 -179 -473 -75 -66 34 -89 52 -77 60 6 4 21 -2 33 -13 27 -23 27 -23 35
-10 4 6 1 9 -5 8 -12 -3 -19 16 -21 62 -1 34 25 125 37 126 5 0 26 5 47 11 37
11 102 7 122 -7 6 -4 26 -11 45 -15 19 -4 46 -16 59 -26 13 -11 31 -19 39 -19
9 0 24 -7 34 -17 15 -13 23 -14 43 -5 14 7 25 20 25 31 0 24 -58 75 -115 102
-24 11 -51 29 -61 41 -18 19 -18 20 5 39 13 10 32 19 43 19 27 0 125 48 131
64 8 21 -23 75 -60 103 -58 45 -118 54 -231 37 -103 -15 -121 -26 -123 -73 0
-19 -4 -13 -15 21 -8 26 -19 50 -24 53 -13 8 -140 43 -195 55 -22 4 -85 24
-140 43 -55 19 -116 37 -135 40 -19 2 -57 11 -85 20 -90 27 -165 41 -235 41
-37 1 -66 4 -64 8 3 4 -10 5 -28 2 -24 -4 -16 3 32 24 36 17 70 30 76 31 6 1
51 -6 100 -14z m-999 -757 c-2 -13 -4 -3 -4 22 0 25 2 35 4 23 2 -13 2 -33 0
-45z m947 -63 c10 -49 19 -98 22 -107 5 -16 -2 -18 -48 -18 -83 0 -84 4 -38
104 22 49 40 95 40 104 0 33 9 4 24 -83z m-2610 24 c14 -7 23 -16 20 -20 -7
-12 -96 -50 -102 -44 -3 3 0 5 7 5 7 0 9 5 5 12 -5 7 -2 9 7 6 16 -6 41 16 31
27 -4 4 4 5 18 1 21 -5 20 -3 -5 9 -35 17 -18 20 19 4z m-1471 -124 c-3 -33
-25 -60 -78 -91 -80 -46 -165 -39 -137 13 18 31 75 80 126 107 44 23 52 25 70
12 14 -9 20 -23 19 -41z m1367 45 c-8 -5 -19 -10 -25 -10 -5 0 -3 5 5 10 8 5
20 10 25 10 6 0 3 -5 -5 -10z m4360 -109 c83 -40 95 -50 98 -73 3 -23 -1 -28
-17 -28 -58 0 -213 96 -224 140 -4 17 -2 19 21 13 15 -3 70 -27 122 -52z
m-4410 27 c54 0 59 -2 30 -8 -27 -6 -15 -8 50 -9 56 -2 78 -5 65 -11 -12 -5 3
-6 40 -3 44 3 56 2 45 -6 -13 -9 -13 -11 1 -11 9 0 63 -5 120 -11 57 -6 113
-11 124 -11 60 -2 200 -20 209 -27 6 -5 27 -11 46 -14 55 -9 145 -31 150 -37
3 -3 12 -5 20 -5 41 0 180 -29 173 -35 -4 -5 -141 -11 -303 -14 -463 -9 -2287
-12 -2296 -3 -4 4 -2 13 5 20 9 9 144 12 584 12 447 0 582 3 619 14 26 7 45
17 42 22 -7 12 16 82 30 91 7 5 4 8 -7 8 -10 0 -15 5 -12 10 3 6 20 10 36 10
19 0 28 4 23 11 -3 6 -18 8 -33 5 -20 -5 -23 -4 -11 4 9 6 47 8 100 5 47 -3
114 -6 150 -7z"/>
<path d="M5160 5963 c0 -6 4 -13 9 -15 13 -5 75 -106 100 -163 35 -79 51 -162
51 -270 0 -114 -13 -173 -59 -264 -44 -85 -120 -164 -206 -212 -78 -43 -74
-52 7 -14 171 80 306 198 359 313 17 38 34 62 44 62 26 0 126 -55 193 -105
121 -91 214 -234 265 -405 41 -135 50 -223 45 -408 -3 -112 -2 -154 4 -127 5
22 7 123 5 225 -4 162 -8 197 -31 280 -32 115 -101 258 -154 322 -21 25 -45
60 -52 77 -7 17 -15 31 -19 31 -4 0 -13 16 -20 35 -7 19 -17 35 -23 35 -6 0
-9 3 -5 6 3 3 -8 28 -24 55 -16 28 -29 52 -29 55 0 13 -84 181 -100 199 -10
11 -21 29 -24 40 -4 11 -27 36 -51 55 -25 19 -45 40 -45 46 0 5 -15 18 -32 27
-56 30 -97 61 -103 80 -4 9 -11 17 -18 17 -8 0 -8 -3 1 -12 7 -7 12 -19 12
-27 0 -11 -5 -9 -16 7 -8 12 -21 21 -29 20 -7 -2 -22 8 -33 22 -12 14 -21 20
-22 13z"/>
<path d="M4210 5954 c0 -6 7 -33 15 -60 21 -71 36 -222 35 -349 -1 -60 -1
-116 -1 -122 1 -9 7 -7 21 4 18 16 20 30 20 144 0 153 -18 257 -59 335 -16 33
-30 54 -31 48z"/>
<path d="M3854 5667 c-42 -17 -78 -47 -108 -92 -34 -49 -34 -66 0 -26 32 38
65 40 93 5 61 -78 -25 -186 -100 -126 -15 13 -22 30 -22 51 0 46 -14 17 -25
-52 -20 -127 25 -243 110 -285 59 -30 108 -24 176 21 161 108 188 368 50 480
-43 35 -121 46 -174 24z"/>
<path d="M4584 5661 c-113 -52 -157 -237 -89 -377 29 -59 98 -131 145 -151 93
-39 188 8 237 116 26 56 24 213 -3 272 -61 132 -180 190 -290 140z m-40 -120
c21 -23 24 -68 7 -100 -9 -16 -20 -21 -39 -19 -25 3 -27 6 -27 54 1 47 16 84
35 84 4 0 15 -9 24 -19z"/>
<path d="M4430 5123 c-20 -8 -64 -56 -77 -85 -5 -13 -20 -42 -31 -66 -12 -24
-27 -73 -33 -110 -14 -87 -28 -122 -48 -122 -9 0 -22 -4 -30 -9 -11 -7 -7 -16
22 -44 l37 -34 0 -155 0 -155 -118 -6 c-201 -11 -507 -53 -987 -137 -201 -35
-254 -46 -262 -54 -9 -9 76 -158 134 -233 416 -546 1301 -731 1979 -414 278
131 514 344 629 568 27 53 32 70 22 79 -6 6 -73 21 -147 33 -74 13 -220 38
-325 56 -350 62 -688 105 -816 105 l-58 0 -3 161 -3 161 50 -6 c28 -3 74 -8
103 -12 32 -4 77 -2 110 6 32 6 68 14 81 16 39 8 81 58 81 96 -1 49 -127 238
-160 238 -6 0 -9 4 -5 9 3 6 20 4 41 -5 20 -8 38 -13 41 -11 2 3 -9 9 -26 15
-16 6 -47 27 -70 47 -23 21 -41 35 -41 33 0 -2 9 -23 20 -46 24 -50 26 -145 4
-182 l-15 -25 5 25 c17 84 16 107 -4 165 -29 84 -59 113 -100 98z m-160 -1289
l0 -457 -95 7 c-494 34 -930 270 -1166 628 -32 50 -59 93 -59 97 0 4 156 33
348 64 456 76 747 113 900 116 l72 1 0 -456z m405 425 c150 -19 305 -44 758
-122 l188 -32 -35 -58 c-70 -116 -202 -261 -324 -355 -130 -101 -365 -211
-549 -258 -96 -24 -293 -54 -359 -54 l-34 0 0 456 0 457 98 -7 c53 -4 169 -16
257 -27z"/>
<path d="M2804 5046 c-3 -8 -3 -19 0 -24 7 -12 224 -102 371 -154 169 -60 437
-139 452 -134 7 3 13 14 13 24 0 16 -18 24 -97 47 -167 46 -416 131 -555 188
-169 70 -177 72 -184 53z m116 -36 c8 -5 11 -10 5 -10 -5 0 -17 5 -25 10 -8 5
-10 10 -5 10 6 0 17 -5 25 -10z"/>
<path d="M5693 5031 c-23 -11 -56 -26 -75 -35 -101 -46 -489 -178 -605 -206
-41 -9 -53 -16 -53 -31 0 -11 7 -22 16 -26 26 -10 153 24 422 113 57 19 108
31 114 28 6 -4 8 -3 5 2 -7 13 140 69 173 67 19 -2 22 0 10 7 -16 10 -8 13 25
11 17 -2 17 0 5 8 -14 10 -8 13 16 10 10 -1 44 45 41 55 -6 19 -50 17 -94 -3z"/>
<path d="M4688 4983 c6 -2 18 -2 25 0 6 3 1 5 -13 5 -14 0 -19 -2 -12 -5z"/>
<path d="M4918 4983 c7 -3 16 -2 19 1 4 3 -2 6 -13 5 -11 0 -14 -3 -6 -6z"/>
<path d="M4843 4973 c9 -2 23 -2 30 0 6 3 -1 5 -18 5 -16 0 -22 -2 -12 -5z"/>
<path d="M5580 4900 c-8 -5 -10 -10 -5 -10 6 0 17 5 25 10 8 5 11 10 5 10 -5
0 -17 -5 -25 -10z"/>
<path d="M2700 4630 c0 -23 1 -23 170 -45 69 -9 269 -36 445 -60 323 -44 334
-44 335 -8 0 16 -8 18 -240 48 -107 14 -202 28 -210 30 -30 9 -418 55 -458 55
-35 0 -42 -3 -42 -20z"/>
<path d="M5620 4620 c-63 -10 -234 -35 -380 -55 -146 -21 -271 -39 -277 -41
-15 -4 -17 -40 -3 -49 12 -7 179 12 555 66 293 42 360 56 360 80 0 21 -117 21
-255 -1z"/>
<path d="M5951 4294 c0 -11 3 -14 6 -6 3 7 2 16 -1 19 -3 4 -6 -2 -5 -13z"/>
<path d="M5931 4214 c0 -11 3 -14 6 -6 3 7 2 16 -1 19 -3 4 -6 -2 -5 -13z"/>
<path d="M5877 4058 c-9 -23 -15 -43 -13 -45 2 -2 11 15 20 38 9 23 15 43 13
45 -2 2 -11 -15 -20 -38z"/>
<path d="M2770 3581 c0 -6 4 -13 10 -16 6 -3 7 1 4 9 -7 18 -14 21 -14 7z"/>
<path d="M3030 3566 c0 -2 8 -10 18 -17 15 -13 16 -12 3 4 -13 16 -21 21 -21
13z"/>
<path d="M5620 3426 c7 -7 13 -7 20 0 6 6 3 10 -10 10 -13 0 -16 -4 -10 -10z"/>
<path d="M8008 5293 c7 -3 16 -2 19 1 4 3 -2 6 -13 5 -11 0 -14 -3 -6 -6z"/>
<path d="M2300 2240 c-9 -6 -10 -10 -3 -10 6 0 15 5 18 10 8 12 4 12 -15 0z"/>
<path d="M6218 2223 c7 -3 16 -2 19 1 4 3 -2 6 -13 5 -11 0 -14 -3 -6 -6z"/>
<path d="M2378 2153 c7 -3 16 -2 19 1 4 3 -2 6 -13 5 -11 0 -14 -3 -6 -6z"/>
<path d="M8518 4728 c-3 -748 3 -1254 18 -1383 l8 -70 23 90 23 90 2 885 2
885 -33 120 c-18 66 -34 121 -36 123 -2 2 -5 -331 -7 -740z"/>
<path d="M8384 5310 c0 -85 2 -120 3 -77 2 42 2 112 0 155 -1 42 -3 7 -3 -78z"/>
<path d="M8382 5110 c0 -19 2 -27 5 -17 2 9 2 25 0 35 -3 9 -5 1 -5 -18z"/>
<path d="M7735 4300 c-19 -5 -6 -6 35 -3 36 3 67 7 69 9 8 7 -73 2 -104 -6z"/>
<path d="M7728 4273 c6 -2 18 -2 25 0 6 3 1 5 -13 5 -14 0 -19 -2 -12 -5z"/>
<path d="M8065 4100 l-20 -9 20 0 c11 -1 36 -4 56 -7 28 -5 37 -2 42 10 5 13
-1 16 -36 15 -23 0 -51 -4 -62 -9z"/>
<path d="M7927 4083 c18 -2 50 -2 70 0 21 2 7 4 -32 4 -38 0 -55 -2 -38 -4z"/>
<path d="M7311 2808 c0 -46 4 -111 6 -146 l6 -62 476 2 476 3 2 142 3 142
-486 1 -485 1 2 -83z m282 -15 c-40 -2 -106 -2 -145 0 -40 1 -8 3 72 3 80 0
112 -2 73 -3z m230 0 c-13 -2 -33 -2 -45 0 -13 2 -3 4 22 4 25 0 35 -2 23 -4z
m-120 -20 c-57 -2 -103 -8 -103 -13 0 -6 -24 -10 -52 -10 -39 0 -49 -3 -38
-10 11 -8 7 -9 -15 -3 -16 4 -38 7 -47 7 -21 0 -12 16 10 17 9 1 1 5 -18 9
-19 4 55 7 165 7 110 -1 154 -3 98 -4z m-5 -60 c-38 -2 -98 -2 -135 0 -38 2
-7 3 67 3 74 0 105 -1 68 -3z"/>
<path d="M7488 2763 c6 -2 18 -2 25 0 6 3 1 5 -13 5 -14 0 -19 -2 -12 -5z"/>
<path d="M7322 2388 l3 -153 405 0 405 0 72 144 c40 80 70 148 67 153 -3 4
-219 8 -480 8 l-475 0 3 -152z"/>
<path d="M7318 2143 c-2 -5 -2 -74 0 -155 l4 -148 282 0 283 0 42 59 c22 33
41 62 41 65 0 3 25 44 55 91 30 46 55 86 55 89 0 9 -758 7 -762 -1z"/>
<path d="M1783 1323 c15 -2 37 -2 50 0 12 2 0 4 -28 4 -27 0 -38 -2 -22 -4z"/>
<path d="M1998 1323 l-108 -4 0 -108 c0 -104 -1 -109 -22 -115 -13 -3 -95 -11
-183 -17 -88 -6 -164 -15 -168 -19 -5 -4 42 -49 105 -99 92 -73 120 -91 148
-92 91 -2 106 -5 122 -21 12 -12 33 -18 61 -18 23 0 409 -2 857 -4 448 -2
1542 -7 2430 -11 l1615 -7 45 30 c57 39 210 162 285 229 l59 53 -225 2 c-123
2 -243 2 -266 2 l-43 0 0 88 c0 48 -1 91 -2 96 -2 4 168 9 377 12 209 3 -536
6 -1655 7 l-2035 2 0 -89 c0 -48 -4 -92 -8 -97 -11 -10 -805 -11 -909 0 -93 9
-111 15 -104 34 3 8 6 43 6 79 l0 64 503 3 c417 2 393 2 -138 2 -352 1 -688
-1 -747 -2z m2322 -93 l0 -90 -39 0 -38 0 -6 82 c-3 45 -3 86 -1 90 3 5 23 8
45 8 l39 0 0 -90z m1920 15 c0 -73 -1 -76 -27 -87 -27 -10 -106 -15 -608 -38
-300 -13 -398 -24 -414 -46 -10 -15 -41 -16 -41 -2 0 11 -2 11 -8 0 -6 -9 -14
0 -27 30 -10 24 -17 46 -16 51 0 4 -5 7 -12 7 -7 0 -13 10 -13 23 -1 35 -27
117 -39 119 -5 0 13 4 40 8 28 4 301 8 608 8 l557 2 0 -75z"/>
</g>
</svg>
